<?xml version="1.0" encoding="UTF-8"?>
<svg version="1.1" viewBox="0 0 512 512"
	xmlns="http://www.w3.org/2000/svg">
	<polygon points="159.9 196.56 159.27 190.69 96.388 197.39 97.009 203.26"/>
	<path d="m155.49 111.05c-8.683 0-15.734 7.052-15.734 15.727 0 8.69 7.052 15.734 15.734 15.734s15.72-7.044 15.72-15.734c0-8.676-7.037-15.727-15.72-15.727z"/>
	<polygon points="162.41 171.04 97.969 165.97 97.515 171.84 161.95 176.92"/>
	<polygon points="281.06 64.352 272.21 42.238 258.94 59.935"/>
	<polygon points="157.2 59.935 143.93 42.238 135.08 64.352"/>
	<path d="m276.4 126.78c0-8.675-7.044-15.727-15.734-15.727-8.682 0-15.728 7.052-15.728 15.727 0 8.69 7.045 15.734 15.728 15.734 8.69 1e-3 15.734-7.044 15.734-15.734z"/>
	<polygon points="256.25 196.56 319.14 203.26 319.76 197.39 256.88 190.69"/>
	<polygon points="254.21 176.92 318.62 171.84 318.16 165.97 253.74 171.04"/>
	<path d="m242.4 203.64c-4.475 1.076-8.257 1.523-11.404 1.523-4.171 0-7.196-0.78-9.455-1.913-3.349-1.71-5.298-4.273-6.64-7.578-1.299-3.27-1.776-7.196-1.776-10.732 0-2.216 0.195-4.165 0.39-5.788l9.382-9.376c1.732-1.718 2.245-4.323 1.314-6.582-0.938-2.252-3.14-3.717-5.572-3.717h-21.132c-2.498 0-4.736 1.53-5.623 3.868-0.902 2.331-0.267 4.958 1.581 6.64l9.022 8.17c0.259 1.74 0.519 4.107 0.519 6.799 0.022 4.721-0.866 10.098-3.335 13.779-1.256 1.862-2.814 3.37-5.081 4.518-2.252 1.133-5.269 1.913-9.44 1.913-3.147 0-6.929-0.447-11.404-1.53-2.425-0.57-4.879 0.931-5.456 3.356-0.57 2.425 0.931 4.879 3.363 5.464 5.024 1.191 9.484 1.754 13.497 1.761 5.298 0 9.802-1.018 13.526-2.887 4.359-2.187 7.405-5.529 9.448-9.16l0.801 1.56c1.992 3.009 4.836 5.731 8.545 7.6 3.724 1.869 8.236 2.887 13.526 2.887 4.006 0 8.474-0.57 13.505-1.768 2.432-0.592 3.926-3.032 3.341-5.457-0.577-2.426-3.017-3.928-5.442-3.35z"/>
	<path d="m435.9 246.31c0.657-0.678 1.624-1.306 2.31-1.646 9.089-4.2295 16.252-8.632 19.097-12.825 6.6801-9.8444 10.978-22.324 7.651-34.861-4.54-17.178-20.116-29.181-37.878-29.181-3.385 0-6.756 0.44-10.047 1.299l-0.289 0.086-0.281 0.087c-11.043 3.211-21.776 9.116-31.159 17.091-8.863 7.607-15.886 16.701-20.952 27.08-5.94 12.118-9.079 26.301-9.058 40.974 8e-3 18.527 4.604 38.087 14.053 59.747 4.503 10.372 6.799 21.66 6.799 33.583 0.043 16.037-4.338 32.572-11.924 45.629-2.367-7.744-5.55-15.128-9.491-22.021-18.513-32.414-41.891-82.374-53.33-107.35 27.917-11.57 47.751-29.808 59.105-54.398 32.226-69.844-9.982-128.41-40.014-152.64-27.102-56.946-43.76-56.946-50.978-56.953h-7e-3c-1.314 0-2.627 0.109-3.919 0.325-11.7 1.956-26.561 13.944-44.23 35.684h-24.9c-17.668-21.739-32.522-33.728-44.23-35.684-1.284-0.216-2.598-0.325-3.919-0.325h-0.086c-7.261 0-23.898 0.231-50.891 56.954-30.032 24.237-72.234 82.815-40.007 152.64 10.949 23.724 29.801 41.552 56.188 53.179-8.834 21.747-30.775 74.226-50.422 108.58-19.018 33.28-19.538 78.52-1.256 110.01 11.289 19.473 28.697 30.632 47.752 30.632h198.67c14.645 0 28.148-6.46 38.83-18.404 14.039-1.56 27.897-6.359 40.563-14.103 20.202-12.372 37.236-31.7 49.289-55.915 11.526-23.305 17.611-49.512 17.625-75.82 8e-3 -22.764-4.482-44.605-13.338-64.93-6.214-14.255-7.514-23.328-7.506-28.43 7e-3 -4.272 0.816-5.961 1.162-6.684zm-3.493-20.426-0.419 0.13c-0.491 0.188-1.371 0.52-2.461 1.075-2.201 1.083-5.153 2.944-7.715 5.594-1.711 1.768-3.291 3.876-4.598 6.546-1.718 3.573-3.082 8.206-3.103 15.157-8e-3 8.38 2.166 20.267 9.144 36.282 8.127 18.651 11.714 38.167 11.707 57.077-0.015 24.041-5.709 47.145-15.575 67.109-9.917 19.92-23.999 36.918-41.964 47.925-11.916 7.275-25.738 11.765-40.353 11.779-7.232 10.87-17.135 17.842-28.813 17.842h-198.67c-36.016 0-55.662-65.478-29.469-111.32 26.192-45.838 55.654-121.15 55.654-121.15l2.729-8.92c-25.76-7.55-50.61-21.97-63.37-49.635-35.951-77.885 37.928-131.79 37.928-131.79s23.075-49.982 35.25-49.982l0.7 0.065c11.981 1.992 37.936 35.943 37.936 35.943h43.926s25.969-33.951 37.95-35.943l0.692-0.065c12.184 7e-3 35.244 49.982 35.244 49.982s73.893 53.908 37.943 131.79c-13.453 29.159-40.331 43.572-67.549 50.776l1.408 4.504s34.969 78.585 61.154 124.42c8.286 14.493 11.974 30.935 12.024 46.662l-0.916 5.406c2.722-0.975 5.442-2.187 8.207-3.862 6.726-4.085 13.41-10.386 19.234-18.491 11.707-16.182 19.552-39.394 19.488-63.053 0-13.988-2.642-28.12-8.438-41.407-8.596-19.726-12.399-36.86-12.407-51.952-0.022-12.429 2.685-23.407 7.066-32.357 4.374-8.957 10.278-15.792 16.03-20.729 11.613-9.873 22.331-12.731 24.049-13.237 1.682-0.447 3.364-0.664 5.031-0.664 8.675 0 16.614 5.802 18.932 14.601 2.743 10.343-3.349 20.931-13.62 23.854z"/>
</svg>
